<svg version="1.1" id="Layer_1" xmlns="http://www.w3.org/2000/svg" xmlns:xlink="http://www.w3.org/1999/xlink" x="0px" y="0px"
	 width="100%" viewBox="0 0 225 225" enable-background="new 0 0 225 225" xml:space="preserve">
<path fill="#FDFCFD" opacity="1.000000" stroke="none" 
	d="
M226.000000,140.000000 
	C226.000000,154.020889 226.000000,168.041794 225.669769,182.461304 
	C179.219299,136.739960 133.117798,90.601242 86.967819,44.511063 
	C72.378510,29.940657 57.659599,15.500023 43.000000,1.000000 
	C57.020893,1.000000 71.041786,1.000000 85.444351,1.343513 
	C82.815651,5.305204 84.660217,8.007599 87.374954,10.719952 
	C130.434311,53.741390 173.483765,96.772774 216.479523,139.857727 
	C219.803406,143.188507 222.763657,143.960815 226.000000,140.000000 
z"/>
<path fill="#EC6FD9" opacity="1.000000" stroke="none" 
	d="
M226.000000,139.531342 
	C222.763657,143.960815 219.803406,143.188507 216.479523,139.857727 
	C173.483765,96.772774 130.434311,53.741390 87.374954,10.719952 
	C84.660217,8.007599 82.815651,5.305204 85.913010,1.343513 
	C97.020897,1.000000 108.041786,1.000000 119.646286,1.314314 
	C131.083130,12.379237 141.966309,23.099819 152.783585,33.886524 
	C177.206375,58.240322 201.596542,82.626808 226.000000,107.000000 
	C226.000000,117.687561 226.000000,128.375122 226.000000,139.531342 
z"/>
<path fill="#E15DCE" opacity="1.000000" stroke="none" 
	d="
M220.000000,226.000000 
	C214.311966,226.000000 208.623917,226.000000 202.424500,225.621155 
	C200.882706,221.236618 200.378860,216.867188 194.704620,216.590118 
	C194.091827,216.560165 193.690460,214.716827 192.972183,213.909286 
	C189.221329,209.692261 185.405289,205.533066 181.586502,201.377121 
	C181.394806,201.168488 180.940765,201.226883 180.651962,201.077606 
	C175.955139,198.649628 174.736084,192.306030 169.160522,190.832504 
	C169.030273,190.798096 169.162613,190.107452 168.975815,189.899857 
	C165.200272,185.704330 161.401459,181.529663 157.581039,177.374954 
	C157.389343,177.166489 156.934280,177.226608 156.646317,177.076385 
	C151.962357,174.633270 150.723190,168.314911 145.159332,166.826797 
	C145.028503,166.791809 145.096909,166.187805 144.984711,165.881287 
	C142.995422,160.446533 135.680771,159.486862 134.430466,153.382721 
	C134.388596,153.178299 133.390244,153.293808 133.062424,153.005081 
	C129.028473,149.452072 125.034966,145.853119 121.042969,142.252777 
	C120.950851,142.169693 121.061905,141.873444 120.971313,141.774796 
	C117.150940,137.614731 113.323959,133.460648 109.470680,129.331131 
	C109.279442,129.126175 108.797318,129.222565 108.532944,129.051483 
	C104.176491,126.232155 102.437515,120.517830 97.135902,118.712563 
	C96.992455,118.663727 97.147858,117.980064 96.962135,117.776718 
	C93.153046,113.606171 89.320152,109.457253 85.465271,105.328987 
	C85.274055,105.124207 84.790871,105.221962 84.527328,105.050339 
	C80.180779,102.219650 78.426765,96.523949 73.134712,94.706963 
	C72.990860,94.657578 73.147171,93.974113 72.961510,93.770966 
	C69.150848,89.601585 65.316360,85.453865 61.459869,81.326820 
	C61.268673,81.122208 60.784431,81.221329 60.521748,81.049171 
	C56.185234,78.206963 54.415951,72.530113 49.133560,70.701332 
	C48.989300,70.651390 49.146496,69.968155 48.960873,69.765198 
	C45.148643,65.596985 41.312553,61.450478 37.454437,57.324688 
	C37.263264,57.120239 36.777962,57.220707 36.516140,57.048008 
	C32.189671,54.194290 30.406866,48.531311 25.125986,46.713757 
	C25.049110,46.687294 25.048637,46.404751 25.032902,46.239780 
	C24.713253,42.888966 21.714819,42.417252 19.750151,40.668579 
	C16.164192,37.476864 12.124204,34.040253 9.597989,30.395174 
	C7.039527,26.703571 5.266210,24.697662 1.000000,25.000000 
	C1.000000,19.311958 1.000000,13.623919 1.171717,7.201083 
	C2.161266,5.286552 2.979097,4.106817 4.097452,3.107980 
	C7.041501,6.147295 9.081533,9.761910 13.999265,9.347713 
	C14.888773,9.272794 15.927581,11.653532 16.993118,12.812638 
	C18.324575,14.261015 19.742310,15.631306 21.145142,17.012611 
	C25.075682,20.882839 29.019228,24.739862 32.945953,28.613943 
	C33.038101,28.704853 32.928650,28.995214 33.019897,29.092615 
	C36.696953,33.017616 39.723190,38.305298 44.246796,40.488186 
	C49.558311,43.051285 50.183926,48.393764 53.918377,51.657475 
	C58.190609,55.391174 61.833733,59.843616 65.778748,63.956390 
	C65.958977,64.144287 66.532974,63.940723 66.732765,64.125641 
	C70.497543,67.610123 72.707069,72.731537 77.910339,74.735634 
	C78.107300,74.811493 77.797302,75.909599 78.063728,76.142944 
	C82.385422,79.928062 86.195007,84.201088 89.998741,88.482727 
	C90.097183,88.593544 90.305367,88.669464 90.457039,88.661385 
	C97.681183,88.276680 97.359520,98.775124 104.557861,98.487640 
	C104.673172,98.483032 104.802704,99.385170 104.962189,99.851654 
	C106.976173,105.742577 112.624062,108.777939 116.708565,112.470467 
	C120.414558,115.820816 122.402382,120.137512 125.910484,123.398376 
	C130.070129,127.264862 133.014465,132.831604 137.698700,135.632431 
	C142.556519,138.537033 143.140411,145.848755 149.795700,146.277710 
	C149.896027,146.284180 149.996399,147.203140 149.996994,147.696381 
	C150.001099,151.086349 152.322586,152.194260 155.071228,152.850143 
	C161.853775,154.468597 164.012039,161.320267 168.903809,165.149460 
	C173.204086,168.515579 176.113525,173.824615 180.641525,176.686737 
	C185.113312,179.513275 186.543976,184.201462 189.953079,187.529251 
	C194.027359,191.506332 197.780243,195.812164 201.701416,199.948044 
	C201.878723,200.135056 202.441772,199.930740 202.658127,200.110153 
	C206.613052,203.389297 208.539520,208.824387 213.884628,210.682251 
	C214.142273,210.771790 213.839233,212.031494 214.121597,212.579071 
	C214.859451,214.009995 215.853302,215.308762 216.593842,216.738556 
	C217.012146,217.546204 217.119537,218.512268 217.389679,219.400070 
	C217.643951,220.235672 217.881317,221.081207 218.209442,221.888504 
	C218.772110,223.272903 219.399689,224.630905 220.000000,226.000000 
z"/>
<path fill="#E360D0" opacity="1.000000" stroke="none" 
	d="
M220.499481,226.000000 
	C219.399689,224.630905 218.772110,223.272903 218.209442,221.888504 
	C217.881317,221.081207 217.643951,220.235672 217.389679,219.400070 
	C217.119537,218.512268 217.012146,217.546204 216.593842,216.738556 
	C215.853302,215.308762 214.859451,214.009995 214.121597,212.579071 
	C213.839233,212.031494 214.142273,210.771790 213.884628,210.682251 
	C208.539520,208.824387 206.613052,203.389297 202.658127,200.110153 
	C202.441772,199.930740 201.878723,200.135056 201.701416,199.948044 
	C197.780243,195.812164 194.027359,191.506332 189.953079,187.529251 
	C186.543976,184.201462 185.113312,179.513275 180.641525,176.686737 
	C176.113525,173.824615 173.204086,168.515579 168.903809,165.149460 
	C164.012039,161.320267 161.853775,154.468597 155.071228,152.850143 
	C152.322586,152.194260 150.001099,151.086349 149.996994,147.696381 
	C149.996399,147.203140 149.896027,146.284180 149.795700,146.277710 
	C143.140411,145.848755 142.556519,138.537033 137.698700,135.632431 
	C133.014465,132.831604 130.070129,127.264862 125.910484,123.398376 
	C122.402382,120.137512 120.414558,115.820816 116.708565,112.470467 
	C112.624062,108.777939 106.976173,105.742577 104.962189,99.851654 
	C104.802704,99.385170 104.673172,98.483032 104.557861,98.487640 
	C97.359520,98.775124 97.681183,88.276680 90.457039,88.661385 
	C90.305367,88.669464 90.097183,88.593544 89.998741,88.482727 
	C86.195007,84.201088 82.385422,79.928062 78.063728,76.142944 
	C77.797302,75.909599 78.107300,74.811493 77.910339,74.735634 
	C72.707069,72.731537 70.497543,67.610123 66.732765,64.125641 
	C66.532974,63.940723 65.958977,64.144287 65.778748,63.956390 
	C61.833733,59.843616 58.190609,55.391174 53.918377,51.657475 
	C50.183926,48.393764 49.558311,43.051285 44.246796,40.488186 
	C39.723190,38.305298 36.696953,33.017616 33.019897,29.092615 
	C32.928650,28.995214 33.038101,28.704853 32.945953,28.613943 
	C29.019228,24.739862 25.075682,20.882839 21.145142,17.012611 
	C19.742310,15.631306 18.324575,14.261015 16.993118,12.812638 
	C15.927581,11.653532 14.888773,9.272794 13.999265,9.347713 
	C9.081533,9.761910 7.041501,6.147295 4.280407,2.867254 
	C4.775225,1.963754 5.387612,1.481877 6.000000,1.000000 
	C13.687576,1.000000 21.375153,1.000000 29.531494,1.403176 
	C29.661903,6.137426 31.717522,9.064380 35.334152,11.185142 
	C36.436741,11.831692 37.417965,12.755510 38.298531,13.698277 
	C42.191994,17.866739 45.950100,22.163929 49.906399,26.270790 
	C54.397682,30.932993 58.949173,35.547009 63.662548,39.982117 
	C66.985680,43.109070 70.926193,45.627632 72.389809,50.331276 
	C72.542908,50.823296 73.464195,51.048668 73.978516,51.460831 
	C75.910454,53.009029 77.920982,54.477596 79.719452,56.170055 
	C83.405426,59.638775 86.925606,63.283417 90.603279,66.761269 
	C94.375557,70.328590 98.288956,73.746414 102.074615,77.299950 
	C104.681702,79.747162 108.588547,81.914345 109.436119,84.908287 
	C111.379837,91.774246 118.564850,92.788818 121.989281,98.015930 
	C124.824310,102.343384 130.076172,105.006302 133.733505,108.898804 
	C137.475372,112.881264 139.967850,118.236061 144.150269,121.545631 
	C147.725540,124.374779 150.816101,127.243401 153.266998,130.995483 
	C153.636795,131.561630 154.800537,131.553665 155.500427,131.972641 
	C156.560104,132.606995 157.680359,133.243912 158.520950,134.122665 
	C162.351639,138.127243 166.026794,142.281448 169.884842,146.258743 
	C174.392441,150.905670 179.024139,155.432495 183.616348,159.996994 
	C187.207733,163.566711 190.759583,167.179504 194.441666,170.653748 
	C198.218918,174.217804 202.189362,177.577057 205.968338,181.139359 
	C208.682785,183.698151 212.488602,186.012177 213.572006,189.196075 
	C215.754822,195.611069 221.800369,196.531250 226.000000,200.000000 
	C226.000000,208.666733 226.000000,217.333466 226.000000,226.000000 
	C224.279480,226.000000 222.639221,226.000000 220.499481,226.000000 
z"/>
<path fill="#DF59CC" opacity="1.000000" stroke="none" 
	d="
M1.000000,25.467606 
	C5.266210,24.697662 7.039527,26.703571 9.597989,30.395174 
	C12.124204,34.040253 16.164192,37.476864 19.750151,40.668579 
	C21.714819,42.417252 24.713253,42.888966 25.032902,46.239780 
	C25.048637,46.404751 25.049110,46.687294 25.125986,46.713757 
	C30.406866,48.531311 32.189671,54.194290 36.516140,57.048008 
	C36.777962,57.220707 37.263264,57.120239 37.454437,57.324688 
	C41.312553,61.450478 45.148643,65.596985 48.960873,69.765198 
	C49.146496,69.968155 48.989300,70.651390 49.133560,70.701332 
	C54.415951,72.530113 56.185234,78.206963 60.521748,81.049171 
	C60.784431,81.221329 61.268673,81.122208 61.459869,81.326820 
	C65.316360,85.453865 69.150848,89.601585 72.961510,93.770966 
	C73.147171,93.974113 72.990860,94.657578 73.134712,94.706963 
	C78.426765,96.523949 80.180779,102.219650 84.527328,105.050339 
	C84.790871,105.221962 85.274055,105.124207 85.465271,105.328987 
	C89.320152,109.457253 93.153046,113.606171 96.962135,117.776718 
	C97.147858,117.980064 96.992455,118.663727 97.135902,118.712563 
	C102.437515,120.517830 104.176491,126.232155 108.532944,129.051483 
	C108.797318,129.222565 109.279442,129.126175 109.470680,129.331131 
	C113.323959,133.460648 117.150940,137.614731 120.971313,141.774796 
	C121.061905,141.873444 120.950851,142.169693 121.042969,142.252777 
	C125.034966,145.853119 129.028473,149.452072 133.062424,153.005081 
	C133.390244,153.293808 134.388596,153.178299 134.430466,153.382721 
	C135.680771,159.486862 142.995422,160.446533 144.984711,165.881287 
	C145.096909,166.187805 145.028503,166.791809 145.159332,166.826797 
	C150.723190,168.314911 151.962357,174.633270 156.646317,177.076385 
	C156.934280,177.226608 157.389343,177.166489 157.581039,177.374954 
	C161.401459,181.529663 165.200272,185.704330 168.975815,189.899857 
	C169.162613,190.107452 169.030273,190.798096 169.160522,190.832504 
	C174.736084,192.306030 175.955139,198.649628 180.651962,201.077606 
	C180.940765,201.226883 181.394806,201.168488 181.586502,201.377121 
	C185.405289,205.533066 189.221329,209.692261 192.972183,213.909286 
	C193.690460,214.716827 194.091827,216.560165 194.704620,216.590118 
	C200.378860,216.867188 200.882706,221.236618 201.956543,225.621155 
	C196.645065,226.000000 191.290146,226.000000 185.421326,225.611572 
	C183.804733,222.846207 183.170563,218.864929 181.514923,218.381409 
	C175.633820,216.663910 175.406723,208.431168 168.775131,208.052246 
	C168.500183,208.036560 168.058289,206.902176 168.085709,206.307037 
	C168.235535,203.056564 166.607971,201.986465 163.539154,201.853287 
	C161.465286,201.763260 159.423691,200.929428 157.471512,200.453613 
	C156.413879,192.951187 153.049042,189.545181 147.271271,189.940903 
	C141.599548,181.607620 133.831924,176.657532 124.955841,173.113922 
	C125.709946,171.671112 126.341774,170.491180 127.154785,168.972916 
	C122.926346,167.665619 119.809631,164.982010 118.459297,160.362473 
	C118.180908,159.410095 116.153648,159.100159 115.302528,158.159332 
	C112.769287,155.359085 110.381943,152.423004 108.015610,149.477310 
	C106.843330,148.018005 106.016205,146.248611 104.714012,144.935867 
	C103.448036,143.659622 101.622772,142.949326 100.304390,141.712097 
	C91.420242,133.374771 84.995178,122.305008 73.095856,117.302231 
	C72.608276,117.097237 72.366753,116.249458 72.063034,115.673500 
	C68.591042,109.089279 64.997208,102.652657 55.999237,102.101875 
	C55.999237,103.063049 55.999237,104.031067 55.711777,105.000168 
	C55.041458,105.003471 54.658604,105.005699 54.178589,104.756729 
	C54.090118,104.326202 54.098808,104.146858 54.306427,103.858688 
	C54.748478,103.551857 54.912621,103.301956 54.999245,102.614075 
	C55.373413,99.358635 55.746132,96.489288 56.118847,93.619934 
	C55.712753,93.615181 55.306660,93.610428 54.900566,93.605667 
	C53.866154,94.769356 52.831741,95.933044 51.522575,96.892700 
	C47.497921,91.794868 43.748020,86.901077 40.001015,81.678497 
	C40.076870,80.356354 40.149834,79.362976 40.243771,78.084007 
	C39.179852,78.526932 38.475010,78.820366 37.533875,78.983292 
	C36.878944,78.522728 36.460316,78.192673 36.261337,77.627296 
	C37.358025,76.795181 38.235058,76.198402 39.112087,75.601616 
	C32.408344,75.376480 32.470470,70.374207 31.039616,66.760910 
	C26.033094,62.943127 20.699697,59.236164 17.075600,54.279442 
	C15.245093,51.775848 13.900515,49.887299 10.980513,49.040607 
	C10.188774,48.811031 9.100272,47.884178 9.024162,47.182339 
	C8.466342,42.038441 5.121816,41.474606 1.000000,42.000000 
	C1.000000,36.645069 1.000000,31.290140 1.000000,25.467606 
z"/>
<path fill="#FEFDFE" opacity="1.000000" stroke="none" 
	d="
M39.998119,82.007278 
	C43.748020,86.901077 47.497921,91.794868 51.594757,97.245880 
	C52.611927,99.541252 53.282162,101.279411 53.954800,103.261002 
	C53.957199,103.504417 54.107494,103.967506 54.107494,103.967506 
	C54.098808,104.146858 54.090118,104.326202 54.168762,105.162003 
	C54.536766,109.203674 54.817436,112.588867 55.028053,116.365723 
	C54.924374,117.815826 54.890751,118.874275 54.655914,120.236969 
	C52.612663,129.344925 48.279060,136.902374 42.430046,143.886505 
	C36.986485,146.709900 31.894745,149.524597 26.485806,152.402039 
	C25.779421,152.648407 25.390238,152.832031 24.640663,152.995285 
	C22.830240,153.541321 21.380209,154.107742 19.477215,154.762726 
	C14.698342,154.948196 10.372435,155.045120 5.702322,155.057281 
	C1.470541,153.680252 2.651542,157.872665 1.000000,159.000000 
	C1.000000,129.979111 1.000000,100.958214 1.396722,71.456818 
	C4.407565,71.651337 7.017204,72.879982 9.636616,72.901176 
	C18.768862,72.975105 27.678337,73.859703 36.041683,77.862625 
	C36.460316,78.192673 36.878944,78.522728 37.586929,79.308624 
	C38.583561,80.512077 39.290840,81.259682 39.998119,82.007278 
z"/>
<path fill="#FEFDFE" opacity="1.000000" stroke="none" 
	d="
M124.833557,173.376801 
	C133.831924,176.657532 141.599548,181.607620 147.399628,190.289490 
	C151.685150,197.682220 153.850723,204.921326 154.149078,212.908310 
	C154.313217,217.301575 155.999817,221.637970 157.000000,226.000000 
	C128.312439,226.000000 99.624878,226.000000 70.706741,225.717133 
	C71.305489,223.916794 72.763786,222.433945 72.849564,220.875549 
	C73.140045,215.598373 72.944466,210.294434 72.973145,204.786224 
	C73.011658,204.571716 73.054489,204.137970 73.369827,203.947205 
	C77.168839,197.239777 80.652504,190.723129 84.438477,184.053314 
	C91.010658,177.608765 98.895493,174.394577 107.695877,172.130798 
	C113.731071,172.179306 119.418022,170.889313 124.833557,173.376801 
z"/>
<path fill="#E565D2" opacity="1.000000" stroke="none" 
	d="
M226.000000,199.532394 
	C221.800369,196.531250 215.754822,195.611069 213.572006,189.196075 
	C212.488602,186.012177 208.682785,183.698151 205.968338,181.139359 
	C202.189362,177.577057 198.218918,174.217804 194.441666,170.653748 
	C190.759583,167.179504 187.207733,163.566711 183.616348,159.996994 
	C179.024139,155.432495 174.392441,150.905670 169.884842,146.258743 
	C166.026794,142.281448 162.351639,138.127243 158.520950,134.122665 
	C157.680359,133.243912 156.560104,132.606995 155.500427,131.972641 
	C154.800537,131.553665 153.636795,131.561630 153.266998,130.995483 
	C150.816101,127.243401 147.725540,124.374779 144.150269,121.545631 
	C139.967850,118.236061 137.475372,112.881264 133.733505,108.898804 
	C130.076172,105.006302 124.824310,102.343384 121.989281,98.015930 
	C118.564850,92.788818 111.379837,91.774246 109.436119,84.908287 
	C108.588547,81.914345 104.681702,79.747162 102.074615,77.299950 
	C98.288956,73.746414 94.375557,70.328590 90.603279,66.761269 
	C86.925606,63.283417 83.405426,59.638775 79.719452,56.170055 
	C77.920982,54.477596 75.910454,53.009029 73.978516,51.460831 
	C73.464195,51.048668 72.542908,50.823296 72.389809,50.331276 
	C70.926193,45.627632 66.985680,43.109070 63.662548,39.982117 
	C58.949173,35.547009 54.397682,30.932993 49.906399,26.270790 
	C45.950100,22.163929 42.191994,17.866739 38.298531,13.698277 
	C37.417965,12.755510 36.436741,11.831692 35.334152,11.185142 
	C31.717522,9.064380 29.661903,6.137426 30.000130,1.403176 
	C34.024544,1.000000 38.049088,1.000000 42.536816,1.000000 
	C57.659599,15.500023 72.378510,29.940657 86.967819,44.511063 
	C133.117798,90.601242 179.219299,136.739960 225.669769,182.929962 
	C226.000000,188.354935 226.000000,193.709854 226.000000,199.532394 
z"/>
<path fill="#FEFBFD" opacity="1.000000" stroke="none" 
	d="
M226.000000,106.531342 
	C201.596542,82.626808 177.206375,58.240322 152.783585,33.886524 
	C141.966309,23.099819 131.083130,12.379237 120.114944,1.314314 
	C134.020889,1.000000 148.041794,1.000000 162.377777,1.324891 
	C158.838760,5.288612 161.849319,8.253342 164.113525,10.555646 
	C175.883453,22.523605 187.890274,34.258575 199.983093,46.373394 
	C202.741455,49.176403 205.331314,51.680695 208.153732,54.448555 
	C210.728760,57.108559 213.393936,59.270733 215.341553,61.953777 
	C218.644928,66.504524 221.216400,67.190117 226.000000,64.000000 
	C226.000000,78.020897 226.000000,92.041786 226.000000,106.531342 
z"/>
<path fill="#F47AE1" opacity="1.000000" stroke="none" 
	d="
M199.814606,46.074680 
	C187.890274,34.258575 175.883453,22.523605 164.113525,10.555646 
	C161.849319,8.253342 158.838760,5.288612 162.846436,1.324891 
	C171.687561,1.000000 180.375137,1.000000 189.531342,1.428465 
	C189.442871,5.870428 190.288467,8.979919 194.661194,10.494444 
	C196.094009,10.990717 197.202362,12.529876 198.363129,13.688267 
	C205.630280,20.940552 212.857208,28.233162 220.128128,35.481647 
	C222.029510,37.377174 224.039749,39.163517 226.000000,41.000000 
	C226.000000,48.354252 226.000000,55.708500 226.000000,63.531376 
	C221.216400,67.190117 218.644928,66.504524 215.341553,61.953777 
	C213.393936,59.270733 210.728760,57.108559 208.210876,54.067947 
	C209.224960,48.688396 206.150223,45.939709 199.814606,46.074680 
z"/>
<path fill="#D045BF" opacity="1.000000" stroke="none" 
	d="
M72.934631,205.000732 
	C72.944466,210.294434 73.140045,215.598373 72.849564,220.875549 
	C72.763786,222.433945 71.305489,223.916794 70.238083,225.717133 
	C65.643097,226.000000 61.286201,226.000000 56.423035,225.634857 
	C53.348331,220.690445 51.558285,215.330811 47.981182,211.762756 
	C44.739929,208.529678 40.543259,206.277817 38.465057,201.842453 
	C38.261509,201.408035 37.273293,201.371124 36.680962,201.084290 
	C31.903839,198.771088 30.851393,192.226761 25.165665,190.939072 
	C25.050966,185.883240 21.320414,184.988708 16.982506,184.517029 
	C17.915216,178.396957 13.960342,176.960815 9.429936,176.472214 
	C8.200743,169.671814 7.572722,169.134995 1.000000,169.000000 
	C1.000000,165.969406 1.000000,162.938812 1.000000,159.454102 
	C2.651542,157.872665 1.470541,153.680252 6.005944,155.321106 
	C10.103481,155.781845 13.553190,155.893982 17.006519,156.349579 
	C17.673849,157.795288 18.337557,158.897491 18.664169,160.152405 
	C14.998963,163.381149 15.447907,167.225067 18.959129,169.557495 
	C21.101778,170.980804 22.700449,173.215942 24.572088,175.057343 
	C25.489204,175.959641 26.497429,176.769089 27.418823,177.667343 
	C29.075935,179.282852 30.700434,180.931854 32.335159,182.570251 
	C33.353756,183.591110 34.360516,184.623840 35.382580,185.641205 
	C37.022945,187.274002 38.677933,188.892120 40.314407,190.528763 
	C41.334064,191.548569 42.269756,192.660645 43.349052,193.611023 
	C47.354847,197.138351 51.415096,200.603851 55.418430,204.133911 
	C55.750179,204.426437 55.787277,205.039124 55.996681,205.486481 
	C58.675495,211.209671 63.219154,211.950760 67.928574,207.676849 
	C69.287552,206.443542 71.249260,205.874390 72.934631,205.000732 
z"/>
<path fill="#CD41BC" opacity="1.000000" stroke="none" 
	d="
M1.000000,169.468628 
	C7.572722,169.134995 8.200743,169.671814 9.429936,176.472214 
	C13.960342,176.960815 17.915216,178.396957 16.982506,184.517029 
	C21.320414,184.988708 25.050966,185.883240 25.165665,190.939072 
	C30.851393,192.226761 31.903839,198.771088 36.680962,201.084290 
	C37.273293,201.371124 38.261509,201.408035 38.465057,201.842453 
	C40.543259,206.277817 44.739929,208.529678 47.981182,211.762756 
	C51.558285,215.330811 53.348331,220.690445 55.958382,225.634857 
	C49.645603,226.000000 43.291203,226.000000 36.426216,225.633392 
	C35.357506,224.258514 34.433098,223.293808 34.307064,222.234131 
	C33.852711,218.413925 30.673382,217.594208 28.412760,215.471817 
	C25.028496,212.294540 22.476757,208.121033 18.141216,205.777588 
	C18.048306,205.727386 18.054937,205.467010 18.039997,205.302414 
	C17.737778,201.972458 15.876188,200.316544 12.595210,199.880753 
	C11.768802,199.770966 10.387792,198.832123 10.386926,198.272537 
	C10.376271,191.385895 5.633386,191.813950 1.000000,192.000000 
	C1.000000,184.645752 1.000000,177.291504 1.000000,169.468628 
z"/>
<path fill="#F77EE4" opacity="1.000000" stroke="none" 
	d="
M226.000000,40.531342 
	C224.039749,39.163517 222.029510,37.377174 220.128128,35.481647 
	C212.857208,28.233162 205.630280,20.940552 198.363129,13.688267 
	C197.202362,12.529876 196.094009,10.990717 194.661194,10.494444 
	C190.288467,8.979919 189.442871,5.870428 190.000000,1.428465 
	C201.930496,1.000000 213.860977,1.000000 226.000000,1.000000 
	C226.000000,14.020153 226.000000,27.041418 226.000000,40.531342 
z"/>
<path fill="#CC3DB9" opacity="1.000000" stroke="none" 
	d="
M1.000000,192.468658 
	C5.633386,191.813950 10.376271,191.385895 10.386926,198.272537 
	C10.387792,198.832123 11.768802,199.770966 12.595210,199.880753 
	C15.876188,200.316544 17.737778,201.972458 18.039997,205.302414 
	C18.054937,205.467010 18.048306,205.727386 18.141216,205.777588 
	C22.476757,208.121033 25.028496,212.294540 28.412760,215.471817 
	C30.673382,217.594208 33.852711,218.413925 34.307064,222.234131 
	C34.433098,223.293808 35.357506,224.258514 35.957813,225.633392 
	C24.407816,226.000000 12.815631,226.000000 1.000000,226.000000 
	C1.000000,214.980118 1.000000,203.958710 1.000000,192.468658 
z"/>
<path fill="#DC56CA" opacity="1.000000" stroke="none" 
	d="
M36.261337,77.627296 
	C27.678337,73.859703 18.768862,72.975105 9.636616,72.901176 
	C7.017204,72.879982 4.407565,71.651337 1.396722,70.988159 
	C1.000000,61.645771 1.000000,52.291542 1.000000,42.468658 
	C5.121816,41.474606 8.466342,42.038441 9.024162,47.182339 
	C9.100272,47.884178 10.188774,48.811031 10.980513,49.040607 
	C13.900515,49.887299 15.245093,51.775848 17.075600,54.279442 
	C20.699697,59.236164 26.033094,62.943127 31.039616,66.760910 
	C32.470470,70.374207 32.408344,75.376480 39.112087,75.601616 
	C38.235058,76.198402 37.358025,76.795181 36.261337,77.627296 
z"/>
<path fill="#DC56C9" opacity="1.000000" stroke="none" 
	d="
M157.468658,226.000000 
	C155.999817,221.637970 154.313217,217.301575 154.149078,212.908310 
	C153.850723,204.921326 151.685150,197.682220 147.647278,190.493896 
	C153.049042,189.545181 156.413879,192.951187 157.471512,200.453613 
	C159.423691,200.929428 161.465286,201.763260 163.539154,201.853287 
	C166.607971,201.986465 168.235535,203.056564 168.085709,206.307037 
	C168.058289,206.902176 168.500183,208.036560 168.775131,208.052246 
	C175.406723,208.431168 175.633820,216.663910 181.514923,218.381409 
	C183.170563,218.864929 183.804733,222.846207 184.953705,225.611572 
	C175.979111,226.000000 166.958206,226.000000 157.468658,226.000000 
z"/>
<path fill="#FAD9F8" opacity="1.000000" stroke="none" 
	d="
M5.500038,1.000000 
	C5.387612,1.481877 4.775225,1.963754 3.979883,2.686356 
	C2.979097,4.106817 2.161266,5.286552 1.171717,6.733144 
	C1.000000,5.095223 1.000000,3.190447 1.000000,1.000000 
	C2.328534,1.000000 3.664304,1.000000 5.500038,1.000000 
z"/>
<path fill="#DB55C8" opacity="1.000000" stroke="none" 
	d="
M124.955841,173.113922 
	C119.418022,170.889313 113.731071,172.179306 107.298798,172.077042 
	C103.533966,170.654022 100.607307,169.331070 97.467979,167.911987 
	C96.573975,163.086060 94.776321,164.499191 91.585678,160.440338 
	C88.319092,156.284866 83.835434,153.591980 80.849869,149.263901 
	C77.675842,144.662643 72.607506,141.602692 69.211761,137.046997 
	C69.148117,136.961594 68.828293,137.087769 68.735092,137.000641 
	C67.478065,135.825623 65.458649,134.800873 65.153969,133.405670 
	C64.437164,130.123322 62.716953,128.933853 59.600880,128.977722 
	C58.189720,128.997604 56.774921,128.758804 55.588856,128.656891 
	C54.257233,125.464340 59.682030,122.352989 54.857128,119.932724 
	C54.890751,118.874275 54.924374,117.815826 55.331924,116.194046 
	C55.803650,112.086845 55.901443,108.542961 55.999237,104.999084 
	C55.999237,104.031067 55.999237,103.063049 55.999237,102.101875 
	C64.997208,102.652657 68.591042,109.089279 72.063034,115.673500 
	C72.366753,116.249458 72.608276,117.097237 73.095856,117.302231 
	C84.995178,122.305008 91.420242,133.374771 100.304390,141.712097 
	C101.622772,142.949326 103.448036,143.659622 104.714012,144.935867 
	C106.016205,146.248611 106.843330,148.018005 108.015610,149.477310 
	C110.381943,152.423004 112.769287,155.359085 115.302528,158.159332 
	C116.153648,159.100159 118.180908,159.410095 118.459297,160.362473 
	C119.809631,164.982010 122.926346,167.665619 127.154785,168.972916 
	C126.341774,170.491180 125.709946,171.671112 124.955841,173.113922 
z"/>
<path fill="#DB55C8" opacity="1.000000" stroke="none" 
	d="
M53.952400,103.017578 
	C53.282162,101.279411 52.611927,99.541252 51.869507,97.449905 
	C52.831741,95.933044 53.866154,94.769356 54.900566,93.605667 
	C55.306660,93.610428 55.712753,93.615181 56.118847,93.619934 
	C55.746132,96.489288 55.373413,99.358635 54.737892,102.617386 
	C54.300854,103.010384 54.126625,103.013985 53.952400,103.017578 
z"/>
<path fill="#D851C6" opacity="1.000000" stroke="none" 
	d="
M55.711777,105.000168 
	C55.901443,108.542961 55.803650,112.086845 55.401981,115.802399 
	C54.817436,112.588867 54.536766,109.203674 54.265923,105.413193 
	C54.658604,105.005699 55.041458,105.003471 55.711777,105.000168 
z"/>
<path fill="#DC56CA" opacity="1.000000" stroke="none" 
	d="
M40.001015,81.678497 
	C39.290840,81.259682 38.583561,80.512077 37.823227,79.439133 
	C38.475010,78.820366 39.179852,78.526932 40.243771,78.084007 
	C40.149834,79.362976 40.076870,80.356354 40.001015,81.678497 
z"/>
<path fill="#D851C6" opacity="1.000000" stroke="none" 
	d="
M53.954800,103.261002 
	C54.126625,103.013985 54.300854,103.010384 54.736435,103.003479 
	C54.912621,103.301956 54.748478,103.551857 54.306427,103.858688 
	C54.107494,103.967506 53.957199,103.504417 53.954800,103.261002 
z"/>
<path fill="#D44BC2" opacity="1.000000" stroke="none" 
	d="
M84.136169,184.206482 
	C80.652504,190.723129 77.168839,197.239777 73.353409,203.553940 
	C72.148849,202.477585 71.420166,201.246017 70.366348,200.821396 
	C69.081558,200.303680 66.309120,200.630417 66.264839,200.306793 
	C65.548393,195.068909 61.561855,193.040558 57.618931,190.876297 
	C57.289623,190.695541 57.360390,189.892120 57.055359,189.544769 
	C53.422104,185.407562 49.777607,181.279236 46.052872,177.224991 
	C45.697914,176.838638 44.705402,177.114853 44.144978,176.822540 
	C43.288761,176.375885 42.386040,175.835785 41.790588,175.102036 
	C38.426006,170.955902 35.852150,165.707428 31.643595,162.834656 
	C27.317244,159.881470 26.932993,156.506256 26.803005,152.339294 
	C31.894745,149.524597 36.986485,146.709900 42.715305,143.998947 
	C44.856888,143.409698 46.361393,142.716721 48.336334,141.807037 
	C48.560764,143.766739 49.000153,145.690552 48.950695,147.601685 
	C48.868095,150.793274 49.296284,153.033478 53.345119,153.233917 
	C54.599243,153.295990 56.632641,155.364960 56.770874,156.677139 
	C57.100437,159.805573 59.440800,159.875015 61.164577,161.336227 
	C65.285645,164.829559 69.505951,168.621704 72.672974,172.953339 
	C74.148026,174.970825 74.404198,176.964661 77.488632,177.102051 
	C80.213547,177.223434 83.370766,177.584122 82.439018,181.955338 
	C82.310616,182.557755 83.537003,183.448975 84.136169,184.206482 
z"/>
<path fill="#D851C6" opacity="1.000000" stroke="none" 
	d="
M84.438477,184.053314 
	C83.537003,183.448975 82.310616,182.557755 82.439018,181.955338 
	C83.370766,177.584122 80.213547,177.223434 77.488632,177.102051 
	C74.404198,176.964661 74.148026,174.970825 72.672974,172.953339 
	C69.505951,168.621704 65.285645,164.829559 61.164577,161.336227 
	C59.440800,159.875015 57.100437,159.805573 56.770874,156.677139 
	C56.632641,155.364960 54.599243,153.295990 53.345119,153.233917 
	C49.296284,153.033478 48.868095,150.793274 48.950695,147.601685 
	C49.000153,145.690552 48.560764,143.766739 48.336334,141.807037 
	C46.361393,142.716721 44.856888,143.409698 43.067131,143.990234 
	C48.279060,136.902374 52.612663,129.344925 54.655914,120.236969 
	C59.682030,122.352989 54.257233,125.464340 55.588856,128.656891 
	C56.774921,128.758804 58.189720,128.997604 59.600880,128.977722 
	C62.716953,128.933853 64.437164,130.123322 65.153969,133.405670 
	C65.458649,134.800873 67.478065,135.825623 68.735092,137.000641 
	C68.828293,137.087769 69.148117,136.961594 69.211761,137.046997 
	C72.607506,141.602692 77.675842,144.662643 80.849869,149.263901 
	C83.835434,153.591980 88.319092,156.284866 91.585678,160.440338 
	C94.776321,164.499191 96.573975,163.086060 97.467979,167.911987 
	C100.607307,169.331070 103.533966,170.654022 106.857712,172.030731 
	C98.895493,174.394577 91.010658,177.608765 84.438477,184.053314 
M93.520317,169.917923 
	C93.762047,169.773682 94.003777,169.629440 94.245506,169.485199 
	C93.996223,169.351532 93.682014,169.057083 93.514122,169.124893 
	C93.304390,169.209579 93.215065,169.592422 93.520317,169.917923 
z"/>
<path fill="#D246C1" opacity="1.000000" stroke="none" 
	d="
M26.485804,152.402039 
	C26.932993,156.506256 27.317244,159.881470 31.643595,162.834656 
	C35.852150,165.707428 38.426006,170.955902 41.790588,175.102036 
	C42.386040,175.835785 43.288761,176.375885 44.144978,176.822540 
	C44.705402,177.114853 45.697914,176.838638 46.052872,177.224991 
	C49.777607,181.279236 53.422104,185.407562 57.055359,189.544769 
	C57.360390,189.892120 57.289623,190.695541 57.618931,190.876297 
	C61.561855,193.040558 65.548393,195.068909 66.264839,200.306793 
	C66.309120,200.630417 69.081558,200.303680 70.366348,200.821396 
	C71.420166,201.246017 72.148849,202.477585 73.038071,203.744720 
	C73.054489,204.137970 73.011658,204.571716 72.973145,204.786224 
	C71.249260,205.874390 69.287552,206.443542 67.928574,207.676849 
	C63.219154,211.950760 58.675495,211.209671 55.996681,205.486481 
	C55.787277,205.039124 55.750179,204.426437 55.418430,204.133911 
	C51.415096,200.603851 47.354847,197.138351 43.349052,193.611023 
	C42.269756,192.660645 41.334064,191.548569 40.314407,190.528763 
	C38.677933,188.892120 37.022945,187.274002 35.382580,185.641205 
	C34.360516,184.623840 33.353756,183.591110 32.335159,182.570251 
	C30.700434,180.931854 29.075935,179.282852 27.418823,177.667343 
	C26.497429,176.769089 25.489204,175.959641 24.572088,175.057343 
	C22.700449,173.215942 21.101778,170.980804 18.959129,169.557495 
	C15.447907,167.225067 14.998963,163.381149 19.096790,160.152252 
	C26.267118,161.118973 24.906870,156.532654 25.001057,153.015656 
	C25.390238,152.832031 25.779421,152.648407 26.485804,152.402039 
z"/>
<path fill="#D44BC2" opacity="1.000000" stroke="none" 
	d="
M24.640663,152.995285 
	C24.906870,156.532654 26.267118,161.118973 19.433884,159.999542 
	C18.337557,158.897491 17.673849,157.795288 17.363266,156.344757 
	C18.454319,155.555695 19.192249,155.114929 19.930180,154.674164 
	C21.380209,154.107742 22.830240,153.541321 24.640663,152.995285 
z"/>
<path fill="#E13EC3" opacity="1.000000" stroke="none" 
	d="
M19.477215,154.762726 
	C19.192249,155.114929 18.454319,155.555695 17.359644,156.001282 
	C13.553190,155.893982 10.103481,155.781845 6.350150,155.405884 
	C10.372435,155.045120 14.698342,154.948196 19.477215,154.762726 
z"/>
<path fill="#EF7CDF" opacity="1.000000" stroke="none" 
	d="
M199.983093,46.373394 
	C206.150223,45.939709 209.224960,48.688396 207.978302,53.804375 
	C205.331314,51.680695 202.741455,49.176403 199.983093,46.373394 
z"/>
<path fill="#DB55C8" opacity="1.000000" stroke="none" 
	d="
M93.297043,169.882233 
	C93.215065,169.592422 93.304390,169.209579 93.514122,169.124893 
	C93.682014,169.057083 93.996223,169.351532 94.245499,169.485199 
	C94.003777,169.629440 93.762047,169.773682 93.297043,169.882233 
z"/>
</svg>